<svg xmlns="http://www.w3.org/2000/svg" viewBox="0 0 10.4 9.14"><defs><style>.cls-1{fill:#88f0f4;}</style></defs><title>目录管理</title><g id="图层_2" data-name="图层 2"><g id="图层_1-2" data-name="图层 1"><path class="cls-1" d="M1.72,1.51H.63A.7.7,0,0,1,0,.75.7.7,0,0,1,.63,0H1.72a.7.7,0,0,1,.62.75A.7.7,0,0,1,1.72,1.51Zm8,0H4.23A.7.7,0,0,1,3.6.75.7.7,0,0,1,4.23,0H9.77a.7.7,0,0,1,.63.75A.7.7,0,0,1,9.77,1.51Zm-8,3.81H.63A.69.69,0,0,1,0,4.57a.69.69,0,0,1,.63-.75H1.72a.69.69,0,0,1,.62.75A.7.7,0,0,1,1.72,5.32Zm8,0H4.23a.69.69,0,0,1-.63-.75.69.69,0,0,1,.63-.75H9.77a.69.69,0,0,1,.63.75A.7.7,0,0,1,9.77,5.32Z"/><path class="cls-1" d="M1.72,9.14H.63A.7.7,0,0,1,0,8.38a.7.7,0,0,1,.63-.75H1.72a.7.7,0,0,1,.62.75A.7.7,0,0,1,1.72,9.14Zm8,0H4.23a.7.7,0,0,1-.63-.76.7.7,0,0,1,.63-.75H9.77a.7.7,0,0,1,.63.75A.7.7,0,0,1,9.77,9.14Z"/></g></g></svg>