<svg xmlns="http://www.w3.org/2000/svg" viewBox="0 0 18.77 15.42"><defs><style>.cls-1{fill:#a4a3a3;}</style></defs><title>排序</title><g id="图层_2" data-name="图层 2"><g id="图层_1-2" data-name="图层 1"><path class="cls-1" d="M14.85,15.21l3.81-5a.58.58,0,0,0-.1-.8.57.57,0,0,0-.28-.11H10.64a.56.56,0,0,0-.57.55.64.64,0,0,0,.11.36l3.81,5a.53.53,0,0,0,.77.09Z"/><path class="cls-1" d="M14.43,12.91a1.13,1.13,0,0,1-1.09-1.15V1.15a1.09,1.09,0,1,1,2.18,0v10.6a1.13,1.13,0,0,1-1.08,1.16Z"/><path class="cls-1" d="M10.72,2H.82A.85.85,0,0,1,0,1.15.84.84,0,0,1,.82.29h9.9a.84.84,0,0,1,.82.86.85.85,0,0,1-.82.86Z"/><path class="cls-1" d="M8.24,6.35H.82a.86.86,0,0,1,0-1.72H8.24a.86.86,0,0,1,0,1.72ZM5.76,10.69H.82A.86.86,0,0,1,.82,9H5.76a.86.86,0,0,1,0,1.72ZM3.3,15H.82a.86.86,0,0,1,0-1.72H3.3A.86.86,0,0,1,3.3,15Z"/></g></g></svg>