<svg xmlns="http://www.w3.org/2000/svg" viewBox="0 0 16.85 16.47"><defs><style>.cls-1{fill:#88f0f4;}</style></defs><title>删除1</title><g id="图层_2" data-name="图层 2"><g id="图层_1-2" data-name="图层 1"><path class="cls-1" d="M8.42,16.47A8.34,8.34,0,0,1,0,8.23,8.34,8.34,0,0,1,8.42,0a8.34,8.34,0,0,1,8.43,8.23A8.34,8.34,0,0,1,8.42,16.47Zm0-15.32A7.18,7.18,0,0,0,1.15,8.23a7.18,7.18,0,0,0,7.27,7.09A7.18,7.18,0,0,0,15.7,8.23,7.18,7.18,0,0,0,8.42,1.15Z"/><path class="cls-1" d="M5.67,7.85h5.89a.58.58,0,1,1,0,1.15H5.67a.58.58,0,1,1,0-1.15Z"/></g></g></svg>