<svg xmlns="http://www.w3.org/2000/svg" viewBox="0 0 16.59 16.59"><defs><style>.cls-1{fill:#bfbfbf;}</style></defs><title>保存</title><g id="图层_2" data-name="图层 2"><g id="图层_1-2" data-name="图层 1"><path class="cls-1" d="M14.22,0H2.37A2.37,2.37,0,0,0,0,2.37V14.22a2.37,2.37,0,0,0,2.37,2.37H14.22a2.37,2.37,0,0,0,2.37-2.37V2.37A2.37,2.37,0,0,0,14.22,0ZM4.77,1.22h7V5.89h-7Zm10.64,13a1.19,1.19,0,0,1-.35.84,1.15,1.15,0,0,1-.84.35H2.36a1.21,1.21,0,0,1-.84-.35,1.13,1.13,0,0,1-.35-.84V2.37A1.19,1.19,0,0,1,2.36,1.18H3.54V5.93a1.19,1.19,0,0,0,.35.84,1.14,1.14,0,0,0,.83.35h7.12a1.22,1.22,0,0,0,.84-.35A1.19,1.19,0,0,0,13,5.93V1.18h1.18a1.23,1.23,0,0,1,.85.35,1.18,1.18,0,0,1,.34.84V14.23Z"/><path class="cls-1" d="M9.44,2.27a.61.61,0,0,0-.61.61v1.2a.61.61,0,0,0,.61.61.58.58,0,0,0,.43-.18.6.6,0,0,0,.18-.43V2.88A.61.61,0,0,0,9.44,2.27Z"/></g></g></svg>