<svg xmlns="http://www.w3.org/2000/svg" viewBox="0 0 20.44 19.31"><defs><style>.cls-1{fill:#88f0f4;}</style></defs><title>删除</title><g id="图层_2" data-name="图层 2"><g id="图层_1-2" data-name="图层 1"><path class="cls-1" d="M16.47,7.38a.57.57,0,1,1,1.13,0v9.84a2.18,2.18,0,0,1-2.27,2.09H5.11a2.18,2.18,0,0,1-2.27-2.09V7.38A.57.57,0,1,1,4,7.38v9.84a1.06,1.06,0,0,0,1.14,1H15.33a1.06,1.06,0,0,0,1.14-1V7.38ZM5.11,4H15.33V1.82a.78.78,0,0,0-.85-.68H6a.78.78,0,0,0-.85.68ZM4,4V1.82A1.91,1.91,0,0,1,6,0h8.52a1.91,1.91,0,0,1,2,1.82V4h3.4a.57.57,0,0,1,.57.57.56.56,0,0,1-.57.57H.57A.56.56,0,0,1,0,4.54.57.57,0,0,1,.57,4Z"/><path class="cls-1" d="M9.09,8v6.81a.57.57,0,0,1-.57.57A.56.56,0,0,1,8,14.76H8V8a.57.57,0,0,1,.57-.57A.58.58,0,0,1,9.09,8Zm3.4,0v6.81a.57.57,0,1,1-1.13,0V8a.57.57,0,1,1,1.13,0Z"/></g></g></svg>