<svg xmlns="http://www.w3.org/2000/svg" viewBox="0 0 17.46 18.03"><defs><style>.cls-1{fill:#88f0f4;}</style></defs><title>编辑</title><g id="图层_2" data-name="图层 2"><g id="图层_1-2" data-name="图层 1"><path class="cls-1" d="M5.2,15.37a.58.58,0,0,1-.41-.17L1.56,12a.57.57,0,0,1,0-.82L12.19.51a1.71,1.71,0,0,1,2.44,0l1.62,1.62a1.74,1.74,0,0,1,.52,1.22,1.76,1.76,0,0,1-.52,1.22L5.61,15.2A.54.54,0,0,1,5.2,15.37ZM2.78,11.56,5.2,14,15.43,3.75a.57.57,0,0,0,.18-.4.53.53,0,0,0-.18-.4L13.81,1.33a.55.55,0,0,0-.8,0Z"/><path class="cls-1" d="M.58,16.65a.56.56,0,0,1-.42-.18A.57.57,0,0,1,0,15.9l1.38-4.51a.58.58,0,0,1,1-.24l3.24,3.24a.58.58,0,0,1-.25,1L.73,16.62A.4.4,0,0,1,.58,16.65Zm1.66-4-.8,2.59,2.65-.73Zm8.32-9.8.62-.61,3.23,3.24-.61.61ZM8.94,4.46l.62-.61L12.8,7.09l-.62.61Z"/><path class="cls-1" d="M16.88,18H.92a.58.58,0,0,1,0-1.15h16a.58.58,0,1,1,0,1.15Z"/></g></g></svg>