<svg xmlns="http://www.w3.org/2000/svg" viewBox="0 0 16.13 16.13"><defs><style>.cls-1{fill:#a4a3a3;}</style></defs><title>问号</title><g id="图层_2" data-name="图层 2"><g id="图层_1-2" data-name="图层 1"><path class="cls-1" d="M15.49,4.93a8,8,0,0,0-1.72-2.57A8.14,8.14,0,0,0,11.2.63a8.12,8.12,0,0,0-6.27,0,8.08,8.08,0,0,0-4.3,4.3,8.12,8.12,0,0,0,0,6.27,8.14,8.14,0,0,0,1.73,2.57,7.91,7.91,0,0,0,2.56,1.72,8,8,0,0,0,6.28,0,8,8,0,0,0,4.29-4.29,8,8,0,0,0,0-6.27ZM8.06,15.19a7.13,7.13,0,1,1,7.13-7.13A7.14,7.14,0,0,1,8.06,15.19Z"/><path class="cls-1" d="M8.06,11.15a.64.64,0,1,0,0,1.28.64.64,0,0,0,.46-1.09A.6.6,0,0,0,8.06,11.15Zm2-6.73a2.84,2.84,0,0,0-2-.69,2.72,2.72,0,0,0-1.92.64,2.8,2.8,0,0,0-.88,1.84l1.1.14A2.15,2.15,0,0,1,7,5,1.55,1.55,0,0,1,8.09,4.6a1.65,1.65,0,0,1,1.2.47,1.45,1.45,0,0,1,.47,1.08,1.26,1.26,0,0,1-.16.63,3.7,3.7,0,0,1-.71.77,7.18,7.18,0,0,0-.77.74A2.46,2.46,0,0,0,7.71,9a3,3,0,0,0-.18,1.08v.32h1a5.27,5.27,0,0,1,.08-.91A1.52,1.52,0,0,1,8.88,9a4.39,4.39,0,0,1,.67-.68,5.21,5.21,0,0,0,1-1.15,2.2,2.2,0,0,0,.26-1A2.13,2.13,0,0,0,10.09,4.42Z"/></g></g></svg>