<svg xmlns="http://www.w3.org/2000/svg" viewBox="0 0 13.37 13.37"><defs><style>.cls-1{fill:#60a9af;}</style></defs><title>添加-1</title><g id="图层_2" data-name="图层 2"><g id="图层_1-2" data-name="图层 1"><path class="cls-1" d="M9.61,6.27H7.1V3.76a.42.42,0,1,0-.83,0V6.27H3.76a.42.42,0,1,0,0,.83H6.27V9.61a.42.42,0,1,0,.83,0V7.1H9.61a.42.42,0,1,0,0-.83Z"/><path class="cls-1" d="M6.68.84A5.85,5.85,0,1,1,.84,6.68,5.85,5.85,0,0,1,6.68.84m0-.84a6.69,6.69,0,1,0,6.69,6.68A6.68,6.68,0,0,0,6.68,0Z"/></g></g></svg>