<svg xmlns="http://www.w3.org/2000/svg" viewBox="0 0 17.21 17.21"><defs><style>.cls-1{fill:#d38302;}.cls-2{fill:#fff;}</style></defs><title>暂不删除</title><g id="图层_2" data-name="图层 2"><g id="图层_1-2" data-name="图层 1"><path class="cls-1" d="M8.6,0A8.61,8.61,0,1,1,0,8.6,8.63,8.63,0,0,1,8.6,0Z"/><path class="cls-2" d="M8.6,13.26a1,1,0,0,1-.93-.93,1,1,0,0,1,1-1,1,1,0,0,1,.93.93A1.07,1.07,0,0,1,8.6,13.26Zm1-3.8a.89.89,0,0,1-.86.94H8.46a.89.89,0,0,1-.86-.94L7.17,5a1,1,0,0,1,1.15-1H9a1,1,0,0,1,1.15,1Z"/></g></g></svg>