<svg xmlns="http://www.w3.org/2000/svg" viewBox="0 0 14 14"><defs><style>.cls-1{fill:#88f0f4;}</style></defs><title>设置</title><g id="图层_2" data-name="图层 2"><g id="图层_1-2" data-name="图层 1"><path class="cls-1" d="M13.5,11.5H6.94a2,2,0,0,0-3.88,0H.5a.5.5,0,0,0,0,1H3.06a2,2,0,0,0,3.88,0H13.5a.5.5,0,0,0,0-1ZM5,13a1,1,0,1,1,1-1A1,1,0,0,1,5,13Z"/><path class="cls-1" d="M13.5,6.5H10.94a2,2,0,0,0-3.88,0H.5a.5.5,0,0,0,0,1H7.06a2,2,0,0,0,3.88,0H13.5a.5.5,0,0,0,0-1ZM9,8a1,1,0,1,1,1-1A1,1,0,0,1,9,8Z"/><path class="cls-1" d="M.5,2.5H3.06a2,2,0,0,0,3.88,0H13.5a.5.5,0,0,0,0-1H6.94a2,2,0,0,0-3.88,0H.5a.5.5,0,0,0,0,1ZM5,1A1,1,0,1,1,4,2,1,1,0,0,1,5,1Z"/></g></g></svg>