<svg xmlns="http://www.w3.org/2000/svg" viewBox="0 0 17.5 17.5"><defs><style>.cls-1{fill:#bfbfbf;}</style></defs><title>筛选</title><g id="图层_2" data-name="图层 2"><g id="图层_1-2" data-name="图层 1"><path class="cls-1" d="M14.06,17.5H3.44A3.43,3.43,0,0,1,0,14.06V3.44A3.43,3.43,0,0,1,3.44,0H14.06A3.43,3.43,0,0,1,17.5,3.44V14.06a3.43,3.43,0,0,1-3.44,3.44ZM3.44.63A2.8,2.8,0,0,0,.63,3.44V14.06a2.8,2.8,0,0,0,2.81,2.82H14.06a2.8,2.8,0,0,0,2.82-2.82V3.44A2.8,2.8,0,0,0,14.06.63Z"/><path class="cls-1" d="M3.75,4.38,7.47,9.25v3.56H9.72V9.22l3.72-4.84Z"/></g></g></svg>