<svg xmlns="http://www.w3.org/2000/svg" viewBox="0 0 13.04 12.9"><defs><style>.cls-1{fill:#88f0f4;}</style></defs><title>更多操作</title><g id="图层_2" data-name="图层 2"><g id="图层_1-2" data-name="图层 1"><path class="cls-1" d="M4.83,6.18H1.35A1.34,1.34,0,0,1,0,4.83H0V1.35A1.34,1.34,0,0,1,1.35,0H4.83A1.34,1.34,0,0,1,6.18,1.35h0v.36a.45.45,0,1,1-.9,0V1.35A.45.45,0,0,0,4.83.9H1.35a.45.45,0,0,0-.45.45h0V4.83a.45.45,0,0,0,.45.45H4.83a.45.45,0,0,0,.45-.45h0V3.21a.45.45,0,1,1,.9,0V4.83A1.34,1.34,0,0,1,4.83,6.18Zm0,6.72H1.35A1.34,1.34,0,0,1,0,11.55V8.07A1.35,1.35,0,0,1,1.35,6.72H1.6a.45.45,0,0,1,0,.9H1.35a.45.45,0,0,0-.45.45v3.48a.45.45,0,0,0,.45.45H4.83a.45.45,0,0,0,.45-.45V8.07a.45.45,0,0,0-.45-.45H3.16a.45.45,0,0,1,0-.9H4.83A1.35,1.35,0,0,1,6.18,8.07v3.48A1.34,1.34,0,0,1,4.83,12.9Z"/><path class="cls-1" d="M10,6.18A1.36,1.36,0,0,1,9,5.79L7.37,4.16a1.35,1.35,0,0,1,0-1.91h0L9,.62a1.35,1.35,0,0,1,1.91,0h0l1.63,1.63a1.35,1.35,0,0,1,0,1.91h0L10.91,5.79A1.36,1.36,0,0,1,10,6.18Zm0-5a.42.42,0,0,0-.31.13L8,2.89a.44.44,0,0,0,0,.63H8L9.64,5.15a.44.44,0,0,0,.63,0h0L11.9,3.53a.45.45,0,0,0,0-.64h0L10.27,1.26A.42.42,0,0,0,10,1.13Z"/><path class="cls-1" d="M11.69,12.9H8.22a1.34,1.34,0,0,1-1.35-1.35h0v-.32a.45.45,0,0,1,.45-.45.45.45,0,0,1,.45.45v.32a.45.45,0,0,0,.45.45h3.47a.45.45,0,0,0,.45-.45V8.07a.45.45,0,0,0-.45-.45H8.22a.45.45,0,0,0-.45.45V9.71a.45.45,0,0,1-.45.45.45.45,0,0,1-.45-.45V8.07A1.35,1.35,0,0,1,8.22,6.72h3.47A1.35,1.35,0,0,1,13,8.07h0v3.48a1.34,1.34,0,0,1-1.35,1.35Z"/></g></g></svg>